<?xml version="1.0" encoding="utf-8"?>
<svg xmlns="http://www.w3.org/2000/svg" fill="none" height="36" viewBox="0 0 275 36" width="275">
  <g clip-path="url(#auth-trademark-b2c-light__a)">
    <path d="M21.148 16.364a3.147 3.147 0 0 1-1.815 2.848v2.242A1.33 1.33 0 0 1 18 22.785c-.738 0-1.33-.595-1.33-1.33v-2.242a3.145 3.145 0 1 1 4.477-2.848Zm4.01 8.086Zm1.71-2.682a9.7 9.7 0 0 0 .628-2.135 9.277 9.277 0 0 1-.628 2.135Zm.771-3.771c0 .107-.004.217-.008.324a7.932 7.932 0 0 1-.07.873c.035-.295.06-.588.067-.883a4.55 4.55 0 0 0 .01-.314Z" fill="#E6E6E6"/>
    <path d="M22.184 4.185a4.454 4.454 0 0 1-.017.349c-.004.082-.015.16-.025.242a2.832 2.832 0 0 1-.043.25c0 .028-.01.053-.018.075a2.353 2.353 0 0 1-.053.214c-.025.103-.06.203-.097.299-.021.068-.05.132-.074.196a3.323 3.323 0 0 1-.153.32 4.74 4.74 0 0 1-.126.222 4.163 4.163 0 0 1-.527.692c-.064.067-.128.135-.196.195-.071.065-.14.129-.214.186a4.216 4.216 0 0 1-.702.467h-.004a17.784 17.784 0 0 0-5.286-2.278 18.145 18.145 0 0 0-9.356.157c-.232.068-.464.139-.692.214.214-.243.439-.482.67-.713l.357-.346c.217-.207.434-.406.663-.595.117-.104.235-.2.353-.3a16.1 16.1 0 0 1 .677-.524c.014-.01.025-.017.035-.028.125-.086.246-.178.368-.26a17.895 17.895 0 0 1 2.609-1.512 19.097 19.097 0 0 1 1.194-.506c.132-.053.267-.1.399-.15l.41-.139c.135-.046.274-.089.406-.131l.41-.118A18.184 18.184 0 0 1 14.82.282a14.9 14.9 0 0 1 .42-.068c.842-.132 1.69-.2 2.542-.21.075 0 .146-.004.218-.004.071 0 .146.004.217.004a4.177 4.177 0 0 1 3.968 4.18Z" fill="#fff"/>
    <path d="M22.184 4.185a4.454 4.454 0 0 1-.017.349c-.004.082-.015.16-.025.242a2.832 2.832 0 0 1-.043.25c0 .028-.01.053-.018.075a2.353 2.353 0 0 1-.053.214c-.025.103-.06.203-.097.299-.021.068-.05.132-.074.196a3.323 3.323 0 0 1-.153.32 4.74 4.74 0 0 1-.126.222 4.163 4.163 0 0 1-.527.692c-.064.067-.128.135-.196.195-.071.065-.14.129-.214.186a4.216 4.216 0 0 1-.702.467h-.004a17.784 17.784 0 0 0-5.286-2.278 18.145 18.145 0 0 0-9.356.157c-.232.068-.464.139-.692.214.214-.243.439-.482.67-.713l.357-.346c.217-.207.434-.406.663-.595.117-.104.235-.2.353-.3a16.1 16.1 0 0 1 .677-.524c.014-.01.025-.017.035-.028.125-.086.246-.178.368-.26a17.895 17.895 0 0 1 2.609-1.512 19.097 19.097 0 0 1 1.194-.506c.132-.053.267-.1.399-.15l.41-.139c.135-.046.274-.089.406-.131l.41-.118A18.184 18.184 0 0 1 14.82.282a14.9 14.9 0 0 1 .42-.068c.842-.132 1.69-.2 2.542-.21.075 0 .146-.004.218-.004.071 0 .146.004.217.004a4.177 4.177 0 0 1 3.968 4.18Z" fill="url(#auth-trademark-b2c-light__b)" fill-opacity=".73"/>
    <path d="M36.001 18v.218c-.01.852-.078 1.7-.21 2.541a17.062 17.062 0 0 1-.45 2.089c-.039.135-.074.274-.117.41-.043.132-.086.27-.132.406-.043.14-.093.275-.139.41-.05.132-.096.267-.15.4-.053.138-.107.277-.164.413a17.563 17.563 0 0 1-1.853 3.39c-.082.12-.171.242-.26.367a.128.128 0 0 0-.025.035c-.171.225-.346.457-.528.678-.1.117-.196.235-.296.352-.192.229-.392.446-.599.663l-.345.357a17.928 17.928 0 0 1-7.065 4.363c4.21-4.684 5.532-11.043 3.967-16.77l-.003-.012a4.59 4.59 0 0 0 .01-.313 4.18 4.18 0 0 1 4.181-4.181 4.176 4.176 0 0 1 4.178 3.967V18Z" fill="#fff"/>
    <path d="M36.001 18v.218c-.01.852-.078 1.7-.21 2.541a17.062 17.062 0 0 1-.45 2.089c-.039.135-.074.274-.117.41-.043.132-.086.27-.132.406-.043.14-.093.275-.139.41-.05.132-.096.267-.15.4-.053.138-.107.277-.164.413a17.563 17.563 0 0 1-1.853 3.39c-.082.12-.171.242-.26.367a.128.128 0 0 0-.025.035c-.171.225-.346.457-.528.678-.1.117-.196.235-.296.352-.192.229-.392.446-.599.663l-.345.357a17.928 17.928 0 0 1-7.065 4.363c4.21-4.684 5.532-11.043 3.967-16.77l-.003-.012a4.59 4.59 0 0 0 .01-.313 4.18 4.18 0 0 1 4.181-4.181 4.176 4.176 0 0 1 4.178 3.967V18Z" fill="url(#auth-trademark-b2c-light__c)" fill-opacity=".5"/>
    <path d="M23.664 35.092c-6.256 2.064-13.417.61-18.393-4.363-6.797-6.797-7.022-17.68-.67-24.744.228-.075.46-.146.692-.214a18.056 18.056 0 0 1 11.182.403 17.787 17.787 0 0 1 3.46 1.718c-.07.039-.146.075-.22.11l-.225.09a4.42 4.42 0 0 1-.232.081c-.003 0-.007 0-.01.004a4.246 4.246 0 0 1-.984.178 5.528 5.528 0 0 1-.26.007 9.608 9.608 0 0 0-6.816 2.823c-3.76 3.764-3.764 9.863 0 13.627 3.764 3.764 9.867 3.76 13.627 0a9.18 9.18 0 0 0 1.19-1.447 8.69 8.69 0 0 0 .471-.78c.075-.136.143-.272.207-.407.064-.136.128-.27.185-.41a9.7 9.7 0 0 0 .692-2.573c.035-.296.06-.589.068-.884l.003.01c1.565 5.728.242 12.087-3.967 16.771Z" fill="#6D4AFF"/>
    <path d="M23.664 35.092c-6.256 2.064-13.417.61-18.393-4.363-6.797-6.797-7.022-17.68-.67-24.744.228-.075.46-.146.692-.214a18.056 18.056 0 0 1 11.182.403 17.787 17.787 0 0 1 3.46 1.718c-.07.039-.146.075-.22.11l-.225.09a4.42 4.42 0 0 1-.232.081c-.003 0-.007 0-.01.004a4.246 4.246 0 0 1-.984.178 5.528 5.528 0 0 1-.26.007 9.608 9.608 0 0 0-6.816 2.823c-3.76 3.764-3.764 9.863 0 13.627 3.764 3.764 9.867 3.76 13.627 0a9.18 9.18 0 0 0 1.19-1.447 8.69 8.69 0 0 0 .471-.78c.075-.136.143-.272.207-.407.064-.136.128-.27.185-.41a9.7 9.7 0 0 0 .692-2.573c.035-.296.06-.589.068-.884l.003.01c1.565 5.728.242 12.087-3.967 16.771Z" fill="url(#auth-trademark-b2c-light__d)" fill-opacity=".85"/>
    <path d="M21.148 16.364a3.147 3.147 0 0 1-1.815 2.848v2.242A1.33 1.33 0 0 1 18 22.785c-.738 0-1.33-.595-1.33-1.33v-2.242a3.145 3.145 0 1 1 4.477-2.848Z" fill="#BE3232"/>
    <path d="M21.148 16.364a3.147 3.147 0 0 1-1.815 2.848v2.242A1.33 1.33 0 0 1 18 22.785c-.738 0-1.33-.595-1.33-1.33v-2.242a3.145 3.145 0 1 1 4.477-2.848Z" fill="#8F69FF"/>
  </g>
  <g clip-path="url(#auth-trademark-b2c-light__e)">
    <path d="M49 22.095v4.602h3.288v-4.401c0-.428.172-.84.483-1.142a1.664 1.664 0 0 1 1.162-.474h3.373c1.571 0 3.08-.613 4.191-1.709a5.773 5.773 0 0 0 1.735-4.118 5.79 5.79 0 0 0-1.735-4.122 5.981 5.981 0 0 0-4.195-1.706H49v5.752h3.288v-2.71h4.795c.745 0 1.458.29 1.984.807a2.73 2.73 0 0 1 .822 1.95 2.73 2.73 0 0 1-.822 1.949 2.83 2.83 0 0 1-1.984.807H53.6c-.603 0-1.202.115-1.757.345a4.58 4.58 0 0 0-2.489 2.446A4.348 4.348 0 0 0 49 22.095Zm44.74-4.765h-3.53v4.431c0 1.544.567 2.251 2.189 2.251.153 0 .54 0 1.03-.025v2.606c-.668.176-1.26.28-1.907.28-2.73 0-4.586-1.62-4.586-4.682v-4.86h-2.193v-2.557h.549a1.651 1.651 0 0 0 1.52-.998c.084-.198.123-.407.123-.618v-2.409h3.27v4.025h3.53v2.556h.004ZM68.703 14.6c.619 0 1.083.05 1.625.175v2.874l-.877-.026c-1.806 0-2.58.806-2.58 2.445v6.628h-3.275v-6.98c0-2.849 1.701-5.117 5.106-5.117Zm2.605 6.174c0-3.503 2.709-6.175 6.474-6.175s6.474 2.672 6.474 6.175c0 3.504-2.709 6.201-6.474 6.201s-6.474-2.697-6.474-6.2Zm9.722 0c0-1.99-1.367-3.402-3.25-3.402-1.882 0-3.249 1.411-3.249 3.402 0 1.992 1.367 3.402 3.25 3.402 1.882 0 3.249-1.386 3.249-3.401Zm13.695 0c0-3.503 2.708-6.175 6.474-6.175 3.765 0 6.473 2.672 6.473 6.175 0 3.504-2.708 6.201-6.473 6.201-3.766 0-6.474-2.697-6.474-6.2Zm9.723 0c0-1.99-1.367-3.402-3.249-3.402-1.883 0-3.25 1.411-3.25 3.402 0 1.992 1.367 3.402 3.25 3.402 1.882 0 3.249-1.386 3.249-3.401Zm10.598-6.174c3.61 0 5.647 2.243 5.647 5.367v6.73h-3.249v-6.478c0-1.739-.8-2.822-2.398-2.822-1.599 0-2.399 1.083-2.399 2.822v6.477h-3.275v-6.729c0-3.125 2.037-5.368 5.674-5.368Z" fill="#1B1340"/>
    <path d="M212.484 17.33h-3.529v4.43c0 1.545.566 2.252 2.188 2.252.154 0 .541 0 1.031-.026v2.607c-.668.175-1.261.28-1.907.28-2.73 0-4.586-1.62-4.586-4.682V17.33h-2.193v-2.557h.548a1.648 1.648 0 0 0 1.519-.998 1.55 1.55 0 0 0 .124-.617v-2.41h3.27v4.025h3.53v2.557h.005Zm-48.727 0h-3.529v4.43c0 1.545.567 2.252 2.189 2.252.154 0 .541 0 1.03-.026v2.607c-.668.175-1.261.28-1.907.28-2.729 0-4.586-1.62-4.586-4.682V17.33h-2.193v-2.557h.549c.216 0 .431-.043.628-.122a1.641 1.641 0 0 0 .891-.876 1.55 1.55 0 0 0 .124-.617v-2.41h3.27v4.025h3.529v2.557h.005Zm89.372 0H249.6v4.43c0 1.545.566 2.252 2.188 2.252.154 0 .541 0 1.031-.026v2.607c-.668.175-1.261.28-1.907.28-2.73 0-4.586-1.62-4.586-4.682V17.33h-2.193v-2.557h.548a1.648 1.648 0 0 0 1.519-.998 1.55 1.55 0 0 0 .124-.617v-2.41h3.27v4.025h3.53v2.557h.005Zm-12.2-1.991a5.593 5.593 0 0 1 2.296 2.168 6.373 6.373 0 0 1 .837 3.282v5.91h-2.914l-.207-1.773a4.047 4.047 0 0 1-1.609 1.52 4.96 4.96 0 0 1-2.336.527 5.72 5.72 0 0 1-2.945-.779 5.679 5.679 0 0 1-2.118-2.197 6.575 6.575 0 0 1-.775-3.232 5.995 5.995 0 0 1 3.164-5.38 6.728 6.728 0 0 1 3.281-.808 7.061 7.061 0 0 1 3.325.762h.001Zm-1.067 7.95c.634-.59.948-1.419.948-2.525a3.404 3.404 0 0 0-.906-2.46 3.205 3.205 0 0 0-2.288-.952 3.18 3.18 0 0 0-1.244.248c-.395.165-.75.402-1.045.704a3.771 3.771 0 0 0-.915 2.456c0 .898.326 1.767.915 2.456a3.088 3.088 0 0 0 2.295.947 3.2 3.2 0 0 0 1.215-.218c.38-.148.73-.374 1.025-.657ZM132.252 9.43h4.067l6.399 17.266h-3.523l-1.347-3.722h-7.15l-1.348 3.722h-3.496l6.398-17.266Zm4.714 10.709-2.409-6.709a7.497 7.497 0 0 1-.26-.912h-.052a7.288 7.288 0 0 1-.259.912l-2.409 6.709h5.389Zm5.543 1.417v-6.76h3.289v6.532c0 1.721.778 2.785 2.332 2.81 1.659.025 2.383-1.038 2.383-2.81v-6.532h3.29v6.785c0 3.038-2.306 5.392-5.674 5.392-3.601-.025-5.622-2.279-5.622-5.417h.002Zm22.721-10.807h3.264v5.745c.777-1.215 2.175-1.95 3.756-1.95 2.461 0 4.585 1.596 4.585 5.19v6.962h-3.29V20.24c0-2.127-1.166-2.861-2.383-2.861-1.607 0-2.668 1.29-2.668 3.14v6.177h-3.264V10.75Zm12.9 9.997c0-3.57 2.59-6.202 6.244-6.202 3.653 0 6.114 2.659 6.114 6.202 0 .456 0 .633-.052 1.089h-9.197c.388 1.62 1.554 2.481 3.135 2.481 1.425 0 2.227-.379 2.72-1.214h3.03c-.751 2.633-3.213 3.873-5.674 3.873-3.782 0-6.321-2.633-6.321-6.227l.001-.002Zm9.274-1.14c-.207-1.392-1.451-2.404-3.03-2.404-1.58 0-2.798.962-3.161 2.405h6.191Zm9.845-5.062c3.627 0 5.673 2.254 5.673 5.392v6.76h-3.264V20.19c0-1.747-.803-2.836-2.409-2.836-1.606 0-2.409 1.089-2.409 2.836v6.506h-3.29v-6.76c0-3.14 2.047-5.392 5.699-5.392Zm16.114-3.441c0-1.089.933-1.975 2.073-1.975s2.047.886 2.047 1.975c0 1.088-.933 1.949-2.047 1.949s-2.073-.86-2.073-1.95Zm.441 3.849h3.263V26.85h-3.263V14.952Zm4.456 5.794c0-3.57 2.72-6.202 6.424-6.202 3.161 0 5.492 1.848 5.984 4.583h-3.187c-.466-1.14-1.399-1.773-2.72-1.773-1.89 0-3.264 1.393-3.264 3.392 0 2 1.374 3.418 3.264 3.418 1.321 0 2.228-.633 2.72-1.798h3.187c-.492 2.733-2.823 4.608-5.984 4.608-3.704 0-6.424-2.659-6.424-6.228Zm35.227 0c0-3.519 2.72-6.202 6.502-6.202 3.783 0 6.503 2.684 6.503 6.202s-2.72 6.228-6.503 6.228c-3.782 0-6.502-2.71-6.502-6.228Zm9.766 0c0-2-1.373-3.417-3.264-3.417-1.89 0-3.263 1.417-3.263 3.417 0 2 1.373 3.418 3.263 3.418 1.891 0 3.264-1.393 3.264-3.418Zm9.429-6.202c.622 0 1.088.051 1.633.177v2.887l-.881-.026c-1.814 0-2.59.81-2.59 2.456v6.658h-3.29v-7.013c0-2.86 1.71-5.139 5.13-5.139h-.002Z" fill="#6D4AFF"/>
  </g>
  <defs>
    <linearGradient gradientUnits="userSpaceOnUse" id="auth-trademark-b2c-light__b" x1="8.1" x2="23.182" y1=".749" y2="7.222">
      <stop stop-color="#6D4AFF"/>
      <stop offset="1" stop-color="#6D4AFF" stop-opacity=".5"/>
    </linearGradient>
    <linearGradient gradientUnits="userSpaceOnUse" id="auth-trademark-b2c-light__c" x1="19.955" x2="29.956" y1="17.691" y2="38.415">
      <stop offset=".476" stop-color="#6D4AFF"/>
      <stop offset=".731" stop-color="#E6AD32"/>
      <stop offset=".903" stop-color="#F2FB00"/>
    </linearGradient>
    <clipPath id="auth-trademark-b2c-light__a">
      <path d="M0 0h36v36H0z" fill="#fff"/>
    </clipPath>
    <clipPath id="auth-trademark-b2c-light__e">
      <path d="M0 0h225.315v17.95H0z" fill="#fff" transform="translate(49 9.025)"/>
    </clipPath>
    <radialGradient cx="0" cy="0" gradientTransform="matrix(-12.2341 27.3521 -28.487 -15.8492 18.327 10.678)" gradientUnits="userSpaceOnUse" id="auth-trademark-b2c-light__d" r="1">
      <stop offset=".476" stop-color="#6D4AFF"/>
      <stop offset=".731" stop-color="#E6AD32"/>
      <stop offset=".903" stop-color="#F2FB00"/>
    </radialGradient>
  </defs>
</svg>