<svg xmlns="http://www.w3.org/2000/svg" viewBox="0 0 1014.481 663.521"><defs><style>.cls-1{fill:#fff;}</style></defs><g id="Layer_2" data-name="Layer 2"><g id="Layer_1-2" data-name="Layer 1"><path class="cls-1" d="M736.788,498.923c29.205,54.814,87.479,164.524,87.479,164.524l-90.666.074s-27.1-55.938-39.916-82.429c-8.949-18.5-17.8-37.053-26.832-55.513-3.944-8.059-10.159-13.372-19.471-14.057-2.62-.193-8.311,0-8.311,0V619.653H562.893L563.149,0h68.96l88.065,153.867h.763L721.328,0h75.927V310.365h-64.1L637.566,163.273h-.542V319.839s39.9-.69,57.743.155c30.03,1.423,55.3,12.836,72.787,38.352,8.216,11.987,12.45,25.556,14.433,39.839a126.7,126.7,0,0,1,.929,29.707c-2.144,22.2-11.328,40.971-27.128,56.594A94.4,94.4,0,0,1,736.788,498.923ZM638.31,449.09h1.966s24.311.1,36.465-.026a40.505,40.505,0,0,0,18.216-4.481c6.425-3.287,11.015-8.192,13.185-15.171a31.279,31.279,0,0,0,1.054-11.8A24.887,24.887,0,0,0,698.5,398.378a37.677,37.677,0,0,0-21.658-7.071c-11.918-.19-35.763-.04-35.763-.04H638.31Z"/><polygon class="cls-1" points="314.642 660.74 241.867 660.74 241.867 502.996 164.105 502.996 164.03 618.943 89.068 619.869 89.068 317.522 163.96 317.233 164.03 434.231 238.942 434.231 239.164 0.208 314.642 0.208 314.642 660.74"/><polygon class="cls-1" points="403.779 552.389 555.108 552.389 555.108 619.637 322.064 619.637 322.064 320.067 555.106 320.067 555.106 387.851 403.769 387.876 403.769 433.337 520.154 433.337 520.154 503.207 403.779 503.207 403.779 552.389"/><path class="cls-1" d="M804.549,0h209.543V70.634H883.239v47.073l110.508.064v71.995H883.289V240.64l130.778.032v69.693L805.018,310.3Z"/><path class="cls-1" d="M322.4,154.9s-.27-30.848.066-46.262c.454-20.763,5.435-40.451,15.733-58.6,13.875-24.452,34.95-39.3,62.079-45.872,16.414-3.977,33.061-4.327,49.8-3.08a136.793,136.793,0,0,1,34.593,6.893C514.29,18.185,534.3,38.222,545.288,67.427a151.622,151.622,0,0,1,9.087,45.5c.442,8.159.5,16.345.526,24.52.071,19.16.527,38.336-.082,57.477-1.28,40.235-17.394,73.166-50.262,97.08-15.134,11.012-32.428,16.883-51.026,18.784-20.119,2.056-39.927.529-59.109-6.166-28.655-10-48.465-29.592-60.809-57.014-6.793-15.091-10.893-31.023-11.15-47.61C322.23,184.933,322.4,154.9,322.4,154.9Zm152.765,2.839c0-15.188.1-30.377-.065-45.563a53.541,53.541,0,0,0-1.433-12.127c-3.3-13.422-10.9-23.13-24.777-26.828a45.23,45.23,0,0,0-9.332-1.39C423.1,71,411.178,78.1,405.386,93.57a48.482,48.482,0,0,0-3.1,17.14q.013,46.966.01,93.932a43.257,43.257,0,0,0,5.522,21.124c4.916,8.918,12.347,14.6,22.477,16.16a55.6,55.6,0,0,0,12.894.5,31.039,31.039,0,0,0,21.955-11.032,40.856,40.856,0,0,0,9.964-26.344C475.32,189.281,475.162,173.507,475.162,157.734Z"/><path class="cls-1" d="M789.107,473.8c0-16.007-.322-32.021.08-48.018.527-20.992,5.615-40.916,16.105-59.229,13.726-23.963,34.431-38.569,61.211-44.7,16.222-3.716,32.63-4,49.134-2.352a124.92,124.92,0,0,1,36.279,8.8c24.309,10.223,41.027,27.945,51.083,52.142a145.7,145.7,0,0,1,10.462,46.26c.593,8.615.741,17.272.782,25.911.1,20.8.544,41.612-.115,62.389-1.108,34.881-14.147,64.748-40.118,88.4-16.583,15.1-36.421,23.357-58.705,25.63-18.951,1.933-37.6.363-55.644-5.958-25.77-9.026-44.3-26.337-56.525-50.522A120.632,120.632,0,0,1,789.714,519.7c-.27-15.3-.623-30.6-.94-45.9Zm147.948,1.92q0-23.132,0-46.263a47.554,47.554,0,0,0-3.568-18.1c-4.454-10.914-12.237-18.141-23.95-20.456a48.334,48.334,0,0,0-12.527-.85c-12.1.828-20.813,6.905-25.99,17.929a47.636,47.636,0,0,0-4.543,20.355q-.088,47.49.007,94.979a43.257,43.257,0,0,0,6.3,22.329c4.47,7.489,10.953,12.459,19.515,14.228a47.136,47.136,0,0,0,11.822.9c10.083-.513,18.528-4.573,24.553-12.9a42.624,42.624,0,0,0,8.352-25.19C937.128,507.025,937.057,491.37,937.055,475.715Z"/><path class="cls-1" d="M231.472,105.914H153.306c-.487-2.2-.9-4.249-1.4-6.279a53.245,53.245,0,0,0-10.819-22.142c-11.641-13.74-30.565-13.889-41.627-8.51a29.994,29.994,0,0,0-13.45,13.36,50.345,50.345,0,0,0-5.9,23.915q-.076,46.625,0,93.248a41.2,41.2,0,0,0,6.21,21.633c7.464,12.239,18.952,16.441,32.632,15.485,16.18-1.129,26.61-10.242,32.77-24.723,1.541-3.621,2.524-7.478,3.81-11.368h76.133c-.41,2.784-.655,5.4-1.194,7.961-5.182,24.608-15.43,46.755-32.626,65.313-16.968,18.311-38.075,28.668-62.889,31.275a138.449,138.449,0,0,1-60.817-6.675c-32.579-11.392-54.013-34.09-65.937-66.152a113.841,113.841,0,0,1-7.013-38.064C.728,166.154.222,138.117,0,110.077a129.023,129.023,0,0,1,8.523-48.02Q26.286,16.235,73.965,4.16C89.505.215,105.315-.609,121.279.383a144.5,144.5,0,0,1,37.452,6.851c35.105,11.833,57.316,36.075,68.092,71.18a110.212,110.212,0,0,1,4.641,24.738C231.52,103.948,231.472,104.751,231.472,105.914Z"/></g></g></svg>